<?xml version="1.0" encoding="UTF-8"?> <!-- Generator: Adobe Illustrator 24.0.3, SVG Export Plug-In . SVG Version: 6.00 Build 0) --> <svg xmlns="http://www.w3.org/2000/svg" xmlns:xlink="http://www.w3.org/1999/xlink" version="1.1" id="Layer_1" x="0px" y="0px" viewBox="0 0 290 170" style="enable-background:new 0 0 290 170;" xml:space="preserve"> <style type="text/css"> .st0{fill:#397397;} .st1{fill:#006934;} .st2{fill:url(#SVGID_1_);} </style> <path class="st0" d="M76.97,75.66c-1.99-2.34-4.46-4.15-7.37-5.4c1.68-1.28,3.11-2.79,4.26-4.51c1.9-2.83,2.86-6.04,2.86-9.53 c0-4.25-1.05-8.07-3.12-11.37c-2.06-3.28-4.92-5.88-8.51-7.73c-3.55-1.83-7.71-2.75-12.34-2.75H29.74c-1.89,0-3.51,0.64-4.83,1.91 c-1.32,1.28-1.99,2.94-1.99,4.91v65.22c0,1.9,0.66,3.54,1.97,4.84c1.31,1.31,2.94,1.98,4.85,1.98h25.05c5.09,0,9.69-1.06,13.66-3.15 c4-2.1,7.17-5.03,9.42-8.7c2.25-3.68,3.4-7.95,3.4-12.7C81.26,83.38,79.81,79,76.97,75.66z M68,88.68c0,2.59-0.55,4.75-1.64,6.44 c-1.1,1.71-2.58,2.97-4.53,3.86c-2,0.91-4.37,1.38-7.05,1.38H36.55v-22.2h18.23c2.7,0,5.09,0.42,7.11,1.26 c1.95,0.81,3.43,1.95,4.52,3.48C67.47,84.37,68,86.32,68,88.68z M36.55,65.29V47.23h16.21c3.24,0,5.9,0.77,7.92,2.29 c1.88,1.42,2.8,3.61,2.8,6.7c0,3.1-0.92,5.3-2.81,6.75c-2.01,1.54-4.67,2.32-7.9,2.32H36.55z"></path> <path class="st0" d="M102.1,56.94c-1.26-1.26-2.9-1.89-4.89-1.89c-1.91,0-3.53,0.63-4.82,1.87c-1.31,1.26-1.97,2.91-1.97,4.9 l-0.11,44.64c0,1.92,0.65,3.55,1.94,4.84c1.29,1.29,2.92,1.94,4.84,1.94c1.99,0,3.65-0.66,4.91-1.97c1.24-1.29,1.87-2.91,1.87-4.81 l0.11-44.64C103.99,59.85,103.36,58.2,102.1,56.94z"></path> <path class="st0" d="M265.07,36.31c-1.25-1.29-2.89-1.95-4.86-1.95c-1.89,0-3.51,0.64-4.82,1.9c-1.32,1.28-2,2.94-2,4.92v47.28 l-38.81-51.62c-1.37-1.62-3.18-2.47-5.24-2.47c-1.9,0-3.51,0.65-4.8,1.93c-1.28,1.28-1.93,2.93-1.93,4.89v65.22 c0,1.89,0.64,3.52,1.9,4.82c1.28,1.33,2.9,2,4.82,2c1.98,0,3.63-0.67,4.91-2c1.26-1.31,1.9-2.93,1.9-4.82V59.22l38.77,51.57 c0.65,0.84,1.51,1.47,2.55,1.88c0.94,0.37,1.86,0.56,2.73,0.56c1.99,0,3.64-0.68,4.89-2.02c1.22-1.3,1.84-2.92,1.84-4.8V41.18 C266.93,39.23,266.31,37.59,265.07,36.31z"></path> <g> <path class="st1" d="M23.88,152.14c-0.26,0-0.48-0.09-0.66-0.27c-0.18-0.18-0.27-0.4-0.27-0.66v-12.03c0-0.27,0.09-0.49,0.27-0.67 c0.18-0.17,0.4-0.26,0.66-0.26h8.03c0.27,0,0.49,0.08,0.66,0.24c0.17,0.16,0.25,0.37,0.25,0.63c0,0.25-0.08,0.45-0.25,0.6 c-0.17,0.15-0.38,0.23-0.66,0.23H24.8v4.32h5.1c0.27,0,0.49,0.08,0.66,0.24c0.17,0.16,0.25,0.36,0.25,0.61 c0,0.25-0.08,0.45-0.25,0.61c-0.17,0.16-0.38,0.24-0.66,0.24h-5.1v4.44h7.11c0.27,0,0.49,0.08,0.66,0.23 c0.17,0.15,0.25,0.35,0.25,0.6c0,0.26-0.08,0.47-0.25,0.63c-0.17,0.16-0.38,0.24-0.66,0.24H23.88z"></path> <path class="st1" d="M35.77,152.15c-0.26,0-0.48-0.09-0.65-0.26c-0.17-0.17-0.26-0.39-0.26-0.65v-7.93c0-0.27,0.09-0.49,0.26-0.66 c0.17-0.17,0.39-0.25,0.65-0.25c0.27,0,0.49,0.08,0.66,0.25c0.17,0.17,0.25,0.39,0.25,0.66v7.93c0,0.26-0.08,0.48-0.25,0.65 C36.26,152.07,36.04,152.15,35.77,152.15z M43.07,152.15c-0.26,0-0.48-0.09-0.65-0.26c-0.17-0.17-0.26-0.39-0.26-0.65v-4.37 c0-0.67-0.12-1.23-0.37-1.65c-0.25-0.43-0.58-0.74-1-0.95c-0.42-0.21-0.9-0.31-1.45-0.31c-0.5,0-0.95,0.1-1.35,0.3 c-0.4,0.2-0.72,0.47-0.96,0.81c-0.24,0.34-0.36,0.73-0.36,1.16h-1.12c0-0.75,0.18-1.41,0.54-2c0.36-0.59,0.86-1.05,1.48-1.4 c0.63-0.34,1.33-0.52,2.11-0.52c0.82,0,1.55,0.17,2.19,0.52s1.16,0.86,1.53,1.54c0.37,0.67,0.56,1.5,0.56,2.49v4.37 c0,0.26-0.09,0.48-0.26,0.65C43.55,152.07,43.34,152.15,43.07,152.15z"></path> <path class="st1" d="M49.38,152.12c-0.37,0-0.65-0.19-0.85-0.59l-3.77-7.94c-0.09-0.2-0.1-0.4-0.03-0.6 c0.08-0.19,0.23-0.35,0.45-0.45c0.2-0.11,0.41-0.12,0.61-0.05c0.21,0.07,0.36,0.21,0.47,0.41l3.52,7.59h-0.85l3.48-7.59 c0.11-0.2,0.27-0.34,0.49-0.41c0.22-0.07,0.44-0.05,0.67,0.05c0.21,0.1,0.36,0.24,0.43,0.44c0.07,0.2,0.06,0.4-0.04,0.6l-3.77,7.94 C50.02,151.92,49.75,152.12,49.38,152.12z"></path> <path class="st1" d="M56.56,140.83c-0.32,0-0.6-0.12-0.83-0.35c-0.23-0.23-0.35-0.51-0.35-0.83c0-0.32,0.12-0.59,0.35-0.83 c0.23-0.23,0.51-0.35,0.83-0.35c0.32,0,0.6,0.12,0.83,0.35c0.23,0.23,0.35,0.51,0.35,0.83c0,0.32-0.12,0.6-0.35,0.83 C57.16,140.72,56.88,140.83,56.56,140.83z M56.56,152.14c-0.26,0-0.48-0.09-0.65-0.26c-0.17-0.17-0.26-0.39-0.26-0.65v-7.91 c0-0.27,0.09-0.49,0.26-0.66c0.17-0.17,0.39-0.25,0.65-0.25c0.27,0,0.49,0.08,0.66,0.25c0.17,0.17,0.25,0.39,0.25,0.66v7.91 c0,0.26-0.08,0.48-0.25,0.65C57.06,152.05,56.84,152.14,56.56,152.14z"></path> <path class="st1" d="M61.38,152.14c-0.28,0-0.5-0.07-0.66-0.22c-0.15-0.15-0.23-0.37-0.23-0.67v-7.94c0-0.28,0.08-0.5,0.23-0.66 s0.37-0.23,0.66-0.23c0.3,0,0.52,0.07,0.67,0.22c0.15,0.15,0.22,0.37,0.22,0.67v7.94c0,0.28-0.07,0.5-0.22,0.66 C61.9,152.06,61.68,152.14,61.38,152.14z M61.36,146.06c0-0.71,0.17-1.35,0.52-1.91s0.82-1.01,1.41-1.34s1.24-0.5,1.96-0.5 c0.71,0,1.24,0.12,1.59,0.35c0.35,0.23,0.48,0.51,0.4,0.83c-0.04,0.17-0.1,0.29-0.2,0.38c-0.1,0.09-0.22,0.15-0.35,0.17 c-0.13,0.02-0.27,0.02-0.43-0.02c-0.76-0.15-1.44-0.17-2.04-0.03c-0.6,0.13-1.08,0.37-1.43,0.73c-0.35,0.36-0.52,0.81-0.52,1.35 H61.36z"></path> <path class="st1" d="M72.47,152.21c-0.96,0-1.81-0.21-2.54-0.63c-0.73-0.42-1.31-1-1.73-1.74c-0.42-0.74-0.63-1.59-0.63-2.55 c0-0.97,0.21-1.83,0.63-2.57c0.42-0.74,1-1.32,1.73-1.74c0.73-0.42,1.58-0.63,2.54-0.63c0.95,0,1.79,0.21,2.52,0.63 c0.73,0.42,1.31,1,1.73,1.74c0.42,0.74,0.63,1.6,0.63,2.57c0,0.96-0.21,1.81-0.62,2.55c-0.41,0.74-0.99,1.32-1.72,1.74 C74.28,152,73.43,152.21,72.47,152.21z M72.47,150.61c0.62,0,1.16-0.14,1.64-0.43c0.47-0.28,0.84-0.67,1.11-1.17 c0.27-0.5,0.4-1.07,0.4-1.72c0-0.65-0.13-1.23-0.4-1.73c-0.27-0.5-0.64-0.9-1.11-1.18c-0.47-0.28-1.02-0.43-1.64-0.43 s-1.16,0.14-1.63,0.43c-0.47,0.28-0.85,0.68-1.12,1.18c-0.27,0.5-0.41,1.08-0.41,1.73c0,0.65,0.14,1.23,0.41,1.72 c0.27,0.5,0.65,0.89,1.12,1.17C71.31,150.47,71.86,150.61,72.47,150.61z"></path> <path class="st1" d="M80.61,152.15c-0.26,0-0.48-0.09-0.65-0.26c-0.17-0.17-0.26-0.39-0.26-0.65v-7.93c0-0.27,0.09-0.49,0.26-0.66 c0.17-0.17,0.39-0.25,0.65-0.25c0.27,0,0.49,0.08,0.66,0.25c0.17,0.17,0.25,0.39,0.25,0.66v7.93c0,0.26-0.08,0.48-0.25,0.65 C81.1,152.07,80.88,152.15,80.61,152.15z M87.92,152.15c-0.26,0-0.48-0.09-0.65-0.26c-0.17-0.17-0.26-0.39-0.26-0.65v-4.37 c0-0.67-0.12-1.23-0.37-1.65c-0.25-0.43-0.58-0.74-1-0.95c-0.42-0.21-0.9-0.31-1.45-0.31c-0.5,0-0.95,0.1-1.35,0.3 c-0.4,0.2-0.72,0.47-0.96,0.81c-0.24,0.34-0.36,0.73-0.36,1.16H80.4c0-0.75,0.18-1.41,0.54-2s0.86-1.05,1.48-1.4 c0.63-0.34,1.33-0.52,2.11-0.52c0.82,0,1.55,0.17,2.19,0.52c0.65,0.35,1.16,0.86,1.53,1.54c0.37,0.67,0.56,1.5,0.56,2.49v4.37 c0,0.26-0.09,0.48-0.26,0.65C88.39,152.07,88.18,152.15,87.92,152.15z"></path> <path class="st1" d="M92.38,152.15c-0.26,0-0.48-0.09-0.65-0.26c-0.17-0.17-0.26-0.39-0.26-0.65v-7.91c0-0.27,0.09-0.49,0.26-0.66 c0.17-0.17,0.39-0.25,0.65-0.25c0.27,0,0.49,0.08,0.66,0.25c0.17,0.17,0.25,0.39,0.25,0.66v7.91c0,0.26-0.08,0.48-0.25,0.65 C92.87,152.07,92.65,152.15,92.38,152.15z M98.31,152.15c-0.26,0-0.48-0.09-0.65-0.26c-0.17-0.17-0.26-0.39-0.26-0.65v-5.08 c0-0.75-0.18-1.3-0.55-1.66c-0.37-0.36-0.85-0.54-1.44-0.54c-0.62,0-1.13,0.21-1.53,0.64c-0.4,0.43-0.6,0.97-0.6,1.64h-1.12 c0-0.77,0.15-1.45,0.46-2.04c0.31-0.59,0.73-1.05,1.28-1.38c0.54-0.33,1.17-0.5,1.87-0.5c0.68,0,1.27,0.15,1.8,0.44 c0.52,0.3,0.93,0.73,1.22,1.31s0.44,1.27,0.44,2.09v5.08c0,0.26-0.08,0.48-0.25,0.65C98.81,152.07,98.59,152.15,98.31,152.15z M104.23,152.15c-0.26,0-0.48-0.09-0.65-0.26c-0.17-0.17-0.26-0.39-0.26-0.65v-5.08c0-0.75-0.18-1.3-0.55-1.66 c-0.37-0.36-0.85-0.54-1.44-0.54c-0.62,0-1.12,0.21-1.52,0.64c-0.4,0.43-0.6,0.97-0.6,1.64h-1.48c0-0.77,0.17-1.45,0.5-2.04 c0.33-0.59,0.8-1.05,1.4-1.38c0.6-0.33,1.28-0.5,2.05-0.5c0.68,0,1.27,0.15,1.8,0.44c0.52,0.3,0.93,0.73,1.22,1.31 s0.44,1.27,0.44,2.09v5.08c0,0.26-0.08,0.48-0.25,0.65C104.73,152.07,104.51,152.15,104.23,152.15z"></path> <path class="st1" d="M112.36,152.21c-0.98,0-1.86-0.21-2.62-0.63c-0.76-0.42-1.36-1-1.8-1.74c-0.43-0.74-0.65-1.59-0.65-2.55 c0-0.97,0.2-1.83,0.61-2.57c0.41-0.74,0.97-1.32,1.7-1.74c0.72-0.42,1.55-0.63,2.49-0.63c0.92,0,1.72,0.2,2.38,0.61 c0.66,0.41,1.17,0.97,1.52,1.69c0.35,0.72,0.52,1.54,0.52,2.48c0,0.23-0.08,0.41-0.23,0.56c-0.15,0.15-0.35,0.22-0.59,0.22h-7.16 v-1.42h7.11l-0.73,0.5c-0.01-0.59-0.13-1.12-0.36-1.59c-0.23-0.47-0.55-0.84-0.96-1.11c-0.41-0.27-0.92-0.41-1.51-0.41 c-0.68,0-1.25,0.15-1.73,0.44c-0.48,0.3-0.84,0.7-1.09,1.22c-0.25,0.51-0.37,1.1-0.37,1.75c0,0.65,0.15,1.23,0.44,1.74 c0.3,0.51,0.7,0.91,1.23,1.21c0.52,0.3,1.12,0.44,1.79,0.44c0.37,0,0.74-0.07,1.13-0.2c0.38-0.14,0.7-0.29,0.93-0.47 c0.18-0.13,0.37-0.2,0.58-0.2c0.21-0.01,0.39,0.06,0.54,0.19c0.2,0.18,0.31,0.37,0.32,0.59c0.01,0.21-0.08,0.4-0.28,0.55 c-0.4,0.32-0.9,0.58-1.5,0.78C113.47,152.11,112.9,152.21,112.36,152.21z"></path> <path class="st1" d="M119.38,152.15c-0.26,0-0.48-0.09-0.65-0.26c-0.17-0.17-0.26-0.39-0.26-0.65v-7.93c0-0.27,0.09-0.49,0.26-0.66 c0.17-0.17,0.39-0.25,0.65-0.25c0.27,0,0.49,0.08,0.66,0.25c0.17,0.17,0.25,0.39,0.25,0.66v7.93c0,0.26-0.08,0.48-0.25,0.65 C119.87,152.07,119.65,152.15,119.38,152.15z M126.68,152.15c-0.26,0-0.48-0.09-0.65-0.26c-0.17-0.17-0.26-0.39-0.26-0.65v-4.37 c0-0.67-0.12-1.23-0.37-1.65c-0.25-0.43-0.58-0.74-1-0.95c-0.42-0.21-0.9-0.31-1.45-0.31c-0.5,0-0.95,0.1-1.35,0.3 c-0.4,0.2-0.72,0.47-0.96,0.81c-0.24,0.34-0.36,0.73-0.36,1.16h-1.12c0-0.75,0.18-1.41,0.54-2c0.36-0.59,0.86-1.05,1.48-1.4 c0.63-0.34,1.33-0.52,2.11-0.52c0.82,0,1.55,0.17,2.19,0.52c0.65,0.35,1.16,0.86,1.53,1.54c0.37,0.67,0.56,1.5,0.56,2.49v4.37 c0,0.26-0.09,0.48-0.26,0.65C127.16,152.07,126.94,152.15,126.68,152.15z"></path> <path class="st1" d="M129.83,144.3c-0.25,0-0.45-0.07-0.6-0.21c-0.15-0.14-0.23-0.32-0.23-0.53c0-0.24,0.08-0.43,0.23-0.57 c0.15-0.14,0.36-0.21,0.6-0.21h4.11c0.25,0,0.45,0.07,0.6,0.21c0.15,0.14,0.23,0.33,0.23,0.57c0,0.21-0.08,0.39-0.23,0.53 c-0.15,0.14-0.36,0.21-0.6,0.21H129.83z M133.77,152.14c-0.59,0-1.13-0.15-1.6-0.45c-0.47-0.3-0.85-0.71-1.12-1.24 c-0.27-0.52-0.41-1.11-0.41-1.76v-8.48c0-0.26,0.08-0.47,0.25-0.64c0.17-0.17,0.38-0.25,0.64-0.25s0.47,0.08,0.64,0.25 c0.17,0.17,0.25,0.38,0.25,0.64v8.48c0,0.47,0.13,0.87,0.39,1.19c0.26,0.32,0.58,0.48,0.96,0.48h0.6c0.21,0,0.39,0.08,0.54,0.25 c0.15,0.17,0.22,0.38,0.22,0.64c0,0.26-0.1,0.47-0.29,0.64c-0.2,0.17-0.45,0.25-0.76,0.25H133.77z"></path> <path class="st1" d="M141.06,152.21c-0.87,0-1.64-0.22-2.33-0.65c-0.69-0.43-1.23-1.02-1.63-1.76c-0.4-0.74-0.6-1.58-0.6-2.52 c0-0.94,0.22-1.78,0.65-2.52c0.43-0.75,1.02-1.34,1.76-1.77c0.74-0.43,1.57-0.65,2.5-0.65c0.92,0,1.75,0.22,2.49,0.65 c0.73,0.43,1.32,1.02,1.75,1.77c0.43,0.75,0.65,1.59,0.65,2.52h-0.69c0,0.94-0.2,1.77-0.6,2.52c-0.4,0.74-0.94,1.33-1.63,1.76 C142.7,151.99,141.92,152.21,141.06,152.21z M141.42,150.61c0.6,0,1.14-0.14,1.62-0.43c0.47-0.29,0.85-0.69,1.12-1.19 c0.27-0.5,0.41-1.07,0.41-1.7c0-0.64-0.14-1.21-0.41-1.72c-0.27-0.5-0.65-0.9-1.12-1.19c-0.47-0.29-1.01-0.43-1.62-0.43 c-0.59,0-1.13,0.15-1.61,0.43c-0.48,0.29-0.86,0.69-1.14,1.19c-0.28,0.5-0.42,1.08-0.42,1.72c0,0.63,0.14,1.19,0.42,1.7 c0.28,0.5,0.66,0.9,1.14,1.19C140.29,150.46,140.82,150.61,141.42,150.61z M145.4,152.15c-0.26,0-0.48-0.09-0.65-0.26 c-0.17-0.17-0.26-0.39-0.26-0.65v-2.72l0.34-1.88l1.48,0.64v3.96c0,0.26-0.09,0.48-0.26,0.65 C145.87,152.07,145.66,152.15,145.4,152.15z"></path> <path class="st1" d="M150.96,152.14c-0.52,0-0.98-0.14-1.39-0.43s-0.72-0.67-0.94-1.16c-0.23-0.49-0.34-1.06-0.34-1.7v-9.7 c0-0.26,0.08-0.47,0.25-0.64c0.17-0.17,0.38-0.25,0.64-0.25c0.26,0,0.47,0.08,0.64,0.25c0.17,0.17,0.25,0.38,0.25,0.64v9.7 c0,0.44,0.08,0.8,0.25,1.08c0.17,0.28,0.38,0.43,0.64,0.43h0.44c0.24,0,0.43,0.08,0.58,0.25c0.15,0.17,0.22,0.38,0.22,0.64 c0,0.26-0.11,0.47-0.34,0.64c-0.23,0.17-0.52,0.25-0.87,0.25H150.96z"></path> <path class="st1" d="M160.29,152.14c-0.26,0-0.48-0.09-0.66-0.27c-0.18-0.18-0.27-0.4-0.27-0.66v-12.03c0-0.27,0.09-0.49,0.27-0.67 c0.18-0.17,0.4-0.26,0.66-0.26h8.03c0.27,0,0.49,0.08,0.66,0.24s0.25,0.37,0.25,0.63c0,0.25-0.08,0.45-0.25,0.6 s-0.38,0.23-0.66,0.23h-7.11v4.32h5.1c0.27,0,0.49,0.08,0.66,0.24c0.17,0.16,0.25,0.36,0.25,0.61c0,0.25-0.08,0.45-0.25,0.61 c-0.17,0.16-0.38,0.24-0.66,0.24h-5.1v4.44h7.11c0.27,0,0.49,0.08,0.66,0.23s0.25,0.35,0.25,0.6c0,0.26-0.08,0.47-0.25,0.63 s-0.38,0.24-0.66,0.24H160.29z"></path> <path class="st1" d="M172.18,152.15c-0.26,0-0.48-0.09-0.65-0.26c-0.17-0.17-0.26-0.39-0.26-0.65v-7.93c0-0.27,0.09-0.49,0.26-0.66 c0.17-0.17,0.39-0.25,0.65-0.25c0.27,0,0.49,0.08,0.66,0.25c0.17,0.17,0.25,0.39,0.25,0.66v7.93c0,0.26-0.08,0.48-0.25,0.65 C172.67,152.07,172.45,152.15,172.18,152.15z M179.49,152.15c-0.26,0-0.48-0.09-0.65-0.26c-0.17-0.17-0.26-0.39-0.26-0.65v-4.37 c0-0.67-0.12-1.23-0.37-1.65c-0.25-0.43-0.58-0.74-1-0.95c-0.42-0.21-0.9-0.31-1.45-0.31c-0.5,0-0.95,0.1-1.35,0.3 c-0.4,0.2-0.72,0.47-0.96,0.81c-0.24,0.34-0.36,0.73-0.36,1.16h-1.12c0-0.75,0.18-1.41,0.54-2s0.86-1.05,1.48-1.4 c0.63-0.34,1.33-0.52,2.11-0.52c0.82,0,1.55,0.17,2.19,0.52s1.16,0.86,1.53,1.54c0.37,0.67,0.56,1.5,0.56,2.49v4.37 c0,0.26-0.09,0.48-0.26,0.65C179.96,152.07,179.75,152.15,179.49,152.15z"></path> <path class="st1" d="M187.09,152.21c-0.89,0-1.67-0.21-2.36-0.63c-0.68-0.42-1.22-1-1.61-1.74c-0.39-0.74-0.59-1.59-0.59-2.55 c0-0.97,0.21-1.83,0.63-2.57c0.42-0.74,1-1.32,1.73-1.74c0.73-0.42,1.58-0.63,2.54-0.63c0.95,0,1.79,0.21,2.52,0.63 c0.73,0.42,1.31,1,1.73,1.74c0.42,0.74,0.63,1.6,0.63,2.57h-1.05c0,0.96-0.18,1.81-0.54,2.55c-0.36,0.74-0.86,1.32-1.48,1.74 C188.63,152,187.91,152.21,187.09,152.21z M187.41,156.17c-0.84,0-1.63-0.17-2.36-0.5c-0.73-0.33-1.36-0.82-1.87-1.46 c-0.15-0.2-0.21-0.41-0.17-0.62c0.04-0.21,0.16-0.39,0.35-0.51c0.21-0.14,0.44-0.19,0.67-0.14c0.23,0.05,0.42,0.17,0.56,0.36 c0.32,0.4,0.72,0.72,1.21,0.94c0.49,0.23,1.04,0.34,1.65,0.34c0.57,0,1.09-0.14,1.57-0.41c0.48-0.27,0.86-0.67,1.15-1.21 c0.28-0.53,0.43-1.18,0.43-1.96v-2.52l0.59-1.56l1.16,0.37v3.84c0,0.94-0.21,1.79-0.62,2.55c-0.41,0.76-0.99,1.37-1.73,1.82 C189.24,155.95,188.38,156.17,187.41,156.17z M187.45,150.61c0.62,0,1.16-0.14,1.64-0.43c0.47-0.28,0.84-0.67,1.11-1.17 c0.27-0.5,0.4-1.07,0.4-1.72c0-0.65-0.13-1.23-0.4-1.73c-0.27-0.5-0.64-0.9-1.11-1.18c-0.47-0.28-1.02-0.43-1.64-0.43 c-0.62,0-1.16,0.14-1.63,0.43c-0.47,0.28-0.85,0.68-1.12,1.18c-0.27,0.5-0.41,1.08-0.41,1.73c0,0.65,0.14,1.23,0.41,1.72 c0.27,0.5,0.65,0.89,1.12,1.17C186.29,150.47,186.83,150.61,187.45,150.61z"></path> <path class="st1" d="M195.77,140.83c-0.32,0-0.6-0.12-0.83-0.35c-0.23-0.23-0.35-0.51-0.35-0.83c0-0.32,0.12-0.59,0.35-0.83 c0.23-0.23,0.51-0.35,0.83-0.35c0.32,0,0.6,0.12,0.83,0.35c0.23,0.23,0.35,0.51,0.35,0.83c0,0.32-0.12,0.6-0.35,0.83 C196.36,140.72,196.09,140.83,195.77,140.83z M195.77,152.14c-0.26,0-0.48-0.09-0.65-0.26c-0.17-0.17-0.26-0.39-0.26-0.65v-7.91 c0-0.27,0.09-0.49,0.26-0.66c0.17-0.17,0.39-0.25,0.65-0.25c0.27,0,0.49,0.08,0.66,0.25c0.17,0.17,0.25,0.39,0.25,0.66v7.91 c0,0.26-0.08,0.48-0.25,0.65C196.26,152.05,196.04,152.14,195.77,152.14z"></path> <path class="st1" d="M200.6,152.15c-0.26,0-0.48-0.09-0.65-0.26c-0.17-0.17-0.26-0.39-0.26-0.65v-7.93c0-0.27,0.09-0.49,0.26-0.66 c0.17-0.17,0.39-0.25,0.65-0.25c0.27,0,0.49,0.08,0.66,0.25c0.17,0.17,0.25,0.39,0.25,0.66v7.93c0,0.26-0.08,0.48-0.25,0.65 C201.09,152.07,200.87,152.15,200.6,152.15z M207.91,152.15c-0.26,0-0.48-0.09-0.65-0.26c-0.17-0.17-0.26-0.39-0.26-0.65v-4.37 c0-0.67-0.12-1.23-0.37-1.65c-0.25-0.43-0.58-0.74-1-0.95c-0.42-0.21-0.9-0.31-1.45-0.31c-0.5,0-0.95,0.1-1.35,0.3 c-0.4,0.2-0.72,0.47-0.96,0.81c-0.24,0.34-0.36,0.73-0.36,1.16h-1.12c0-0.75,0.18-1.41,0.54-2s0.86-1.05,1.48-1.4 c0.63-0.34,1.33-0.52,2.11-0.52c0.82,0,1.55,0.17,2.19,0.52s1.16,0.86,1.53,1.54c0.37,0.67,0.56,1.5,0.56,2.49v4.37 c0,0.26-0.09,0.48-0.26,0.65C208.38,152.07,208.17,152.15,207.91,152.15z"></path> <path class="st1" d="M216.03,152.21c-0.98,0-1.86-0.21-2.62-0.63c-0.76-0.42-1.36-1-1.8-1.74c-0.43-0.74-0.65-1.59-0.65-2.55 c0-0.97,0.2-1.83,0.61-2.57c0.41-0.74,0.97-1.32,1.7-1.74c0.72-0.42,1.55-0.63,2.49-0.63c0.92,0,1.72,0.2,2.38,0.61 c0.66,0.41,1.17,0.97,1.52,1.69c0.35,0.72,0.52,1.54,0.52,2.48c0,0.23-0.08,0.41-0.23,0.56c-0.15,0.15-0.35,0.22-0.59,0.22h-7.16 v-1.42h7.11l-0.73,0.5c-0.01-0.59-0.13-1.12-0.36-1.59c-0.23-0.47-0.55-0.84-0.96-1.11c-0.41-0.27-0.92-0.41-1.51-0.41 c-0.68,0-1.25,0.15-1.73,0.44c-0.48,0.3-0.84,0.7-1.09,1.22c-0.25,0.51-0.37,1.1-0.37,1.75c0,0.65,0.15,1.23,0.44,1.74 c0.3,0.51,0.7,0.91,1.23,1.21c0.52,0.3,1.12,0.44,1.79,0.44c0.37,0,0.74-0.07,1.13-0.2c0.38-0.14,0.7-0.29,0.93-0.47 c0.18-0.13,0.37-0.2,0.58-0.2c0.21-0.01,0.39,0.06,0.54,0.19c0.2,0.18,0.31,0.37,0.32,0.59c0.01,0.21-0.08,0.4-0.28,0.55 c-0.4,0.32-0.9,0.58-1.5,0.78C217.15,152.11,216.57,152.21,216.03,152.21z"></path> <path class="st1" d="M226.36,152.21c-0.98,0-1.86-0.21-2.62-0.63c-0.76-0.42-1.36-1-1.8-1.74c-0.43-0.74-0.65-1.59-0.65-2.55 c0-0.97,0.2-1.83,0.61-2.57c0.41-0.74,0.97-1.32,1.7-1.74c0.72-0.42,1.55-0.63,2.49-0.63c0.92,0,1.72,0.2,2.38,0.61 c0.66,0.41,1.17,0.97,1.52,1.69c0.35,0.72,0.52,1.54,0.52,2.48c0,0.23-0.08,0.41-0.23,0.56c-0.15,0.15-0.35,0.22-0.59,0.22h-7.16 v-1.42h7.11l-0.73,0.5c-0.01-0.59-0.13-1.12-0.36-1.59c-0.23-0.47-0.55-0.84-0.96-1.11c-0.41-0.27-0.92-0.41-1.51-0.41 c-0.68,0-1.25,0.15-1.73,0.44c-0.48,0.3-0.84,0.7-1.09,1.22c-0.25,0.51-0.37,1.1-0.37,1.75c0,0.65,0.15,1.23,0.44,1.74 c0.3,0.51,0.7,0.91,1.23,1.21c0.52,0.3,1.12,0.44,1.79,0.44c0.37,0,0.74-0.07,1.13-0.2c0.38-0.14,0.7-0.29,0.93-0.47 c0.18-0.13,0.37-0.2,0.58-0.2c0.21-0.01,0.39,0.06,0.54,0.19c0.2,0.18,0.31,0.37,0.32,0.59c0.01,0.21-0.08,0.4-0.28,0.55 c-0.4,0.32-0.9,0.58-1.5,0.78C227.47,152.11,226.9,152.21,226.36,152.21z"></path> <path class="st1" d="M233.36,152.14c-0.28,0-0.5-0.07-0.66-0.22c-0.15-0.15-0.23-0.37-0.23-0.67v-7.94c0-0.28,0.08-0.5,0.23-0.66 s0.37-0.23,0.66-0.23c0.3,0,0.52,0.07,0.67,0.22c0.15,0.15,0.22,0.37,0.22,0.67v7.94c0,0.28-0.07,0.5-0.22,0.66 C233.88,152.06,233.65,152.14,233.36,152.14z M233.34,146.06c0-0.71,0.17-1.35,0.52-1.91c0.35-0.56,0.82-1.01,1.41-1.34 s1.24-0.5,1.96-0.5c0.71,0,1.24,0.12,1.59,0.35c0.35,0.23,0.48,0.51,0.4,0.83c-0.04,0.17-0.1,0.29-0.2,0.38 c-0.1,0.09-0.22,0.15-0.35,0.17c-0.13,0.02-0.27,0.02-0.43-0.02c-0.76-0.15-1.44-0.17-2.04-0.03c-0.6,0.13-1.08,0.37-1.43,0.73 c-0.35,0.36-0.52,0.81-0.52,1.35H233.34z"></path> <path class="st1" d="M241.84,140.83c-0.32,0-0.6-0.12-0.83-0.35c-0.23-0.23-0.35-0.51-0.35-0.83c0-0.32,0.12-0.59,0.35-0.83 c0.23-0.23,0.51-0.35,0.83-0.35c0.32,0,0.6,0.12,0.83,0.35c0.23,0.23,0.35,0.51,0.35,0.83c0,0.32-0.12,0.6-0.35,0.83 C242.43,140.72,242.16,140.83,241.84,140.83z M241.84,152.14c-0.26,0-0.48-0.09-0.65-0.26c-0.17-0.17-0.26-0.39-0.26-0.65v-7.91 c0-0.27,0.09-0.49,0.26-0.66c0.17-0.17,0.39-0.25,0.65-0.25c0.27,0,0.49,0.08,0.66,0.25c0.17,0.17,0.25,0.39,0.25,0.66v7.91 c0,0.26-0.08,0.48-0.25,0.65C242.33,152.05,242.11,152.14,241.84,152.14z"></path> <path class="st1" d="M246.67,152.15c-0.26,0-0.48-0.09-0.65-0.26c-0.17-0.17-0.26-0.39-0.26-0.65v-7.93c0-0.27,0.09-0.49,0.26-0.66 c0.17-0.17,0.39-0.25,0.65-0.25c0.27,0,0.49,0.08,0.66,0.25c0.17,0.17,0.25,0.39,0.25,0.66v7.93c0,0.26-0.08,0.48-0.25,0.65 C247.16,152.07,246.94,152.15,246.67,152.15z M253.98,152.15c-0.26,0-0.48-0.09-0.65-0.26c-0.17-0.17-0.26-0.39-0.26-0.65v-4.37 c0-0.67-0.12-1.23-0.37-1.65c-0.25-0.43-0.58-0.74-1-0.95c-0.42-0.21-0.9-0.31-1.45-0.31c-0.5,0-0.95,0.1-1.35,0.3 c-0.4,0.2-0.72,0.47-0.96,0.81c-0.24,0.34-0.36,0.73-0.36,1.16h-1.12c0-0.75,0.18-1.41,0.54-2s0.86-1.05,1.48-1.4 c0.63-0.34,1.33-0.52,2.11-0.52c0.82,0,1.55,0.17,2.19,0.52s1.16,0.86,1.53,1.54c0.37,0.67,0.56,1.5,0.56,2.49v4.37 c0,0.26-0.09,0.48-0.26,0.65C254.45,152.07,254.24,152.15,253.98,152.15z"></path> <path class="st1" d="M261.58,152.21c-0.89,0-1.67-0.21-2.36-0.63c-0.68-0.42-1.22-1-1.61-1.74c-0.39-0.74-0.59-1.59-0.59-2.55 c0-0.97,0.21-1.83,0.63-2.57c0.42-0.74,1-1.32,1.73-1.74c0.73-0.42,1.58-0.63,2.54-0.63c0.95,0,1.79,0.21,2.52,0.63 c0.73,0.42,1.31,1,1.73,1.74c0.42,0.74,0.63,1.6,0.63,2.57h-1.05c0,0.96-0.18,1.81-0.54,2.55c-0.36,0.74-0.86,1.32-1.48,1.74 C263.12,152,262.4,152.21,261.58,152.21z M261.9,156.17c-0.84,0-1.63-0.17-2.36-0.5c-0.74-0.33-1.36-0.82-1.87-1.46 c-0.15-0.2-0.21-0.41-0.17-0.62c0.04-0.21,0.16-0.39,0.35-0.51c0.21-0.14,0.43-0.19,0.67-0.14c0.23,0.05,0.42,0.17,0.56,0.36 c0.32,0.4,0.72,0.72,1.21,0.94c0.49,0.23,1.04,0.34,1.65,0.34c0.57,0,1.09-0.14,1.57-0.41c0.48-0.27,0.86-0.67,1.15-1.21 c0.29-0.53,0.43-1.18,0.43-1.96v-2.52l0.59-1.56l1.16,0.37v3.84c0,0.94-0.21,1.79-0.62,2.55c-0.41,0.76-0.99,1.37-1.73,1.82 C263.73,155.95,262.87,156.17,261.9,156.17z M261.94,150.61c0.62,0,1.16-0.14,1.64-0.43c0.47-0.28,0.84-0.67,1.11-1.17 c0.27-0.5,0.4-1.07,0.4-1.72c0-0.65-0.13-1.23-0.4-1.73c-0.27-0.5-0.64-0.9-1.11-1.18c-0.47-0.28-1.02-0.43-1.64-0.43 c-0.62,0-1.16,0.14-1.64,0.43c-0.47,0.28-0.85,0.68-1.12,1.18c-0.27,0.5-0.41,1.08-0.41,1.73c0,0.65,0.14,1.23,0.41,1.72 c0.27,0.5,0.65,0.89,1.12,1.17C260.78,150.47,261.32,150.61,261.94,150.61z"></path> </g> <linearGradient id="SVGID_1_" gradientUnits="userSpaceOnUse" x1="92.8531" y1="13.1313" x2="181.7901" y2="102.0683"> <stop offset="0.1424" style="stop-color:#86C345"></stop> <stop offset="0.2105" style="stop-color:#68A465"></stop> <stop offset="0.3009" style="stop-color:#468189"></stop> <stop offset="0.3489" style="stop-color:#397397"></stop> </linearGradient> <path class="st2" d="M153.26,33.18c-6.66,0-12.94,1.63-18.48,4.49l0.05-0.06c-0.2,0.12-0.41,0.23-0.61,0.35 c-0.16,0.08-0.31,0.17-0.47,0.26c-2.32,1.2-4.96,1.88-7.75,1.88c-8.63,0-15.76-6.46-16.81-14.81c-0.32-6.38-5.58-11.45-12.03-11.45 c-6.66,0-12.06,5.4-12.06,12.06s5.4,12.06,12.06,12.06c0.33,0,0.66-0.02,0.98-0.05l-0.02,0.02c0.32-0.02,0.64-0.03,0.96-0.03 c9.36,0,16.94,7.58,16.94,16.94c0,2.03-0.36,3.97-1.01,5.77l0.03-0.04c-1.38,4.07-2.14,8.42-2.14,12.96 c0,22.29,18.07,40.35,40.35,40.35s40.35-18.07,40.35-40.35C193.61,51.25,175.54,33.18,153.26,33.18z M91.24,25.89 c0-3.26,2.65-5.91,5.91-5.91s5.91,2.65,5.91,5.91s-2.65,5.91-5.91,5.91S91.24,29.16,91.24,25.89z M153.26,100.53 c-14.91,0-26.99-12.08-26.99-26.99s12.08-26.99,26.99-26.99c14.91,0,26.99,12.08,26.99,26.99S168.16,100.53,153.26,100.53z"></path> </svg> 